<?xml version="1.0" encoding="iso-8859-1"?>
<!-- Generator: Adobe Illustrator 19.0.0, SVG Export Plug-In . SVG Version: 6.00 Build 0)  -->
<svg version="1.1" id="Capa_1" xmlns="http://www.w3.org/2000/svg" xmlns:xlink="http://www.w3.org/1999/xlink" x="0px" y="0px"
	 viewBox="0 0 512 512" style="enable-background:new 0 0 512 512;" xml:space="preserve">
<path style="fill:#FFB123;" d="M465.305,33.798H46.695v392.999c0,28.39,23.015,51.405,51.405,51.405h315.798
	c28.39,0,51.405-23.015,51.405-51.405V33.798H465.305z"/>
<path style="fill:#FF901D;" d="M46.695,33.798v70.319h343.811c16.359,0,29.621,13.262,29.621,29.621v293.059
	c0,28.39-23.015,51.405-51.405,51.405h45.176c28.39,0,51.405-23.015,51.405-51.405V104.116V33.798H46.695z"/>
<path style="fill:#2D5872;" d="M339.019,333.011H172.981c-6.625,0-11.995-5.37-11.995-11.995V286.81
	c0-6.625,5.37-11.995,11.995-11.995H339.02c6.625,0,11.995,5.37,11.995,11.995v34.207
	C351.014,327.641,345.644,333.011,339.019,333.011z"/>
<path style="fill:#234C60;" d="M339.019,307.104H172.981c-6.625,0-11.995-5.37-11.995-11.995v25.908
	c0,6.625,5.37,11.995,11.995,11.995H339.02c6.625,0,11.995-5.37,11.995-11.995v-25.908
	C351.014,301.734,345.644,307.104,339.019,307.104z"/>
<path style="fill:#FF6D3A;" d="M469.204,82.743H42.796c-13.516,0-24.472-10.957-24.472-24.472l0,0
	c0-13.516,10.957-24.472,24.472-24.472h426.409c13.516,0,24.472,10.957,24.472,24.472l0,0
	C493.677,71.786,482.72,82.743,469.204,82.743z"/>
<path style="fill:#ED5729;" d="M469.204,58.27H42.796c-9.057,0-16.958-4.924-21.19-12.236c-2.084,3.6-3.282,7.777-3.282,12.236l0,0
	c0,13.516,10.957,24.472,24.472,24.472h426.409c13.516,0,24.472-10.957,24.472-24.472l0,0c0-4.459-1.199-8.636-3.282-12.236
	C486.163,53.346,478.261,58.27,469.204,58.27z"/>
<path style="fill:#FF4C4D;" d="M89.948,200.65c0,12.86,10.425,23.285,23.285,23.285l0,0c12.86,0,23.285-10.425,23.285-23.285
	v-32.422c0-12.86,10.425-23.285,23.285-23.285l0,0c12.827,0,23.229,10.372,23.282,23.187v9.235c0,10.851,7.422,19.968,17.466,22.552
	c1.861,0.479,3.811,0.733,5.821,0.733l0,0c12.86,0,23.285-10.425,23.285-23.285v-32.521c0.053-12.815,10.455-23.187,23.282-23.187
	l0,0c12.86,0,23.285,10.425,23.285,23.285v9.138c0,12.86,10.425,23.285,23.285,23.285c12.86,0,23.285-10.425,23.285-23.285V33.798
	H90.796L89.948,200.65z"/>
<path style="fill:#F33A3A;" d="M206.371,200.65h0.001l0,0c12.86,0,23.285-10.425,23.285-23.285v-32.521
	c0.053-12.815,10.455-23.187,23.283-23.187l0,0c12.86,0,23.285,10.425,23.285,23.285v9.138c0,12.86,10.425,23.285,23.285,23.285
	c12.86,0,23.285-10.425,23.285-23.285V33.798H206.371V200.65z"/>
<path d="M465.305,289.046c-4.025,0-7.287,3.262-7.287,7.287v130.464c0,24.327-19.791,44.119-44.119,44.119H98.101
	c-24.327,0-44.119-19.792-44.119-44.119V296.565c0-4.024-3.262-7.287-7.287-7.287s-7.287,3.262-7.287,7.287v130.232
	c0,32.363,26.329,58.692,58.692,58.692h315.799c32.362,0,58.692-26.329,58.692-58.692V296.333
	C472.591,292.308,469.329,289.046,465.305,289.046z"/>
<path d="M472.591,109.535V89.846c15.926-1.696,28.373-15.209,28.373-31.576c0-17.512-14.247-31.759-31.759-31.759h-146.41l0,0l0,0
	H90.797h-0.001H42.795c-17.512,0-31.759,14.247-31.759,31.759c0,16.368,12.447,29.88,28.373,31.576v19.689
	C17.62,109.885,0,127.707,0,149.578v30.371C0,252.321,58.879,311.2,131.25,311.2h22.449v9.817c0,10.632,8.65,19.281,19.282,19.281
	h166.038c10.632,0,19.282-8.649,19.282-19.281V311.2h22.449c72.372,0,131.25-58.879,131.25-131.25v-30.371
	C512,127.707,494.38,109.885,472.591,109.535z M330.082,41.084h139.123c9.476,0,17.186,7.71,17.186,17.186
	s-7.71,17.186-17.186,17.186h-3.9H330.082V41.084z M97.834,82.779l0.213-41.695h217.461v112.995c0,8.27-6.307,15.095-14.365,15.916
	c-0.537,0.055-1.082,0.083-1.633,0.083c-8.822,0-15.998-7.177-15.998-15.999v-9.138c0-4.214-0.857-8.232-2.406-11.888
	c-4.647-10.969-15.522-18.683-28.165-18.683l0,0h-0.001c-7.004,0-13.468,2.384-18.634,6.377
	c-7.215,5.576-11.894,14.297-11.934,24.097v32.521c0,8.822-7.177,15.999-15.999,15.999c-1.359,0-2.706-0.169-4.006-0.504
	c-1.324-0.341-2.573-0.841-3.729-1.478c-5.009-2.76-8.265-8.08-8.265-14.017V168.1l0,0c0-0.041-0.003-0.082-0.004-0.123
	c-0.136-16.729-13.821-30.32-30.566-30.32c-16.858,0-30.572,13.714-30.572,30.571v32.423c0,8.27-6.307,15.095-14.365,15.916
	c-0.537,0.055-1.082,0.083-1.633,0.083s-1.096-0.028-1.632-0.083c-8.052-0.82-14.356-7.636-14.366-15.898L97.834,82.779z
	 M25.609,58.27c0-9.476,7.71-17.186,17.186-17.186h40.677l-0.175,34.372H46.695h-3.9C33.319,75.456,25.609,67.746,25.609,58.27z
	 M343.728,303.913v17.103c0,2.596-2.112,4.708-4.709,4.708H172.981c-2.597,0-4.709-2.112-4.709-4.708v-17.103V286.81
	c0-2.596,2.112-4.709,4.709-4.709h166.038c2.597,0,4.709,2.112,4.709,4.709V303.913z M497.427,179.949
	c0,64.336-52.342,116.677-116.677,116.677h-22.449v-9.816c0-10.632-8.65-19.282-19.282-19.282H172.981
	c-10.632,0-19.282,8.65-19.282,19.282v9.816H131.25c-64.336,0-116.677-52.341-116.677-116.677v-30.371
	c0-13.835,11.083-25.122,24.836-25.469v117.58c0,4.024,3.262,7.287,7.287,7.287s7.287-3.262,7.287-7.287V90.029h29.241
	l-0.562,110.584c0,0.012,0,0.025,0,0.037c0,16.857,13.714,30.572,30.571,30.572c16.858,0,30.572-13.714,30.572-30.572v-32.423
	c0-8.27,6.307-15.095,14.365-15.915c0.537-0.055,1.082-0.083,1.633-0.083c8.784,0,15.959,7.147,15.996,15.9v9.235
	c0,13.959,9.432,26.135,22.936,29.609c2.485,0.639,5.054,0.963,7.637,0.963l0,0l0,0c12.643,0,23.518-7.714,28.165-18.683
	c1.549-3.656,2.406-7.674,2.406-11.888v-32.491c0.005-1.098,0.121-2.17,0.337-3.207c1.518-7.252,7.973-12.724,15.658-12.724
	c8.821,0,15.999,7.177,15.999,15.998v9.138c0,16.857,13.714,30.572,30.571,30.572c16.858,0,30.572-13.714,30.572-30.572v-64.05
	h127.936v151.906c0,4.024,3.262,7.287,7.287,7.287s7.287-3.262,7.287-7.287V124.109c13.753,0.347,24.836,11.635,24.836,25.469
	v30.371H497.427z"/>
<g>
</g>
<g>
</g>
<g>
</g>
<g>
</g>
<g>
</g>
<g>
</g>
<g>
</g>
<g>
</g>
<g>
</g>
<g>
</g>
<g>
</g>
<g>
</g>
<g>
</g>
<g>
</g>
<g>
</g>
</svg>
