<?xml version="1.0" encoding="iso-8859-1"?>
<!-- Generator: Adobe Illustrator 19.0.0, SVG Export Plug-In . SVG Version: 6.00 Build 0)  -->
<svg version="1.1" id="Capa_1" xmlns="http://www.w3.org/2000/svg" xmlns:xlink="http://www.w3.org/1999/xlink" x="0px" y="0px"
	 viewBox="0 0 511.817 511.817" style="enable-background:new 0 0 511.817 511.817;" xml:space="preserve">
<path style="fill:#E6E9ED;" d="M355.883,180.28c-0.016,97.177-78.791,175.96-175.967,175.96
	c-97.162,0-175.953-78.791-175.953-175.96C3.978,83.103,82.745,4.327,179.915,4.335C277.092,4.335,355.867,83.111,355.883,180.28z"
	/>
<g style="opacity:0.2;">
	<path d="M179.915,4.335c-1.906-0.008-3.765,0.219-5.655,0.281c94.537,3.007,170.297,80.4,170.313,175.664
		c-0.016,95.263-75.784,172.656-170.313,175.671c1.898,0.062,3.749,0.289,5.655,0.289c97.176,0,175.952-78.783,175.967-175.96
		C355.867,83.111,277.092,4.335,179.915,4.335z"/>
</g>
<path style="fill:#FFFFFF;" d="M15.272,180.28C15.287,85.016,91.048,7.631,185.57,4.616c-1.89-0.062-3.749-0.289-5.654-0.281
	C82.745,4.327,3.978,83.103,3.962,180.28c0,97.169,78.791,175.96,175.953,175.96c1.913,0,3.764-0.227,5.654-0.289
	C91.04,352.936,15.272,275.543,15.272,180.28z"/>
<path style="fill:#FFCE54;" d="M339.872,180.28c0.016,88.335-71.622,159.957-159.957,159.965
	c-88.328-0.016-159.942-71.63-159.958-159.965c0.016-88.328,71.63-159.965,159.958-159.949
	C268.25,20.331,339.888,91.952,339.872,180.28z"/>
<g style="opacity:0.5;">
	<path style="fill:#FFFFFF;" d="M43.951,180.272c0.008-84.267,65.264-153.186,147.96-159.333c-3.967-0.296-7.935-0.609-11.996-0.609
		C91.587,20.315,19.973,91.952,19.958,180.28c0.016,88.335,71.629,159.949,159.958,159.965c4.061,0,8.029-0.312,12.012-0.617
		C109.215,333.481,43.959,264.562,43.951,180.272z"/>
</g>
<polygon style="fill:#E6E9ED;" points="318.503,290.539 290.228,318.805 335.138,363.715 363.396,335.441 "/>
<g style="opacity:0.2;">
	<path d="M295.055,323.625c10.419-8.373,19.885-17.855,28.258-28.274l-4.811-4.812l-28.274,28.267L295.055,323.625z"/>
</g>
<path style="fill:#656D78;" d="M497.946,458.674L369.067,329.787l-39.592,39.583L458.48,498.366c0.344,0.391,0.594,0.82,0.969,1.195
	c10.997,11.005,28.836,11.005,39.833,0.008s10.997-28.828,0-39.817C498.86,459.338,498.376,459.049,497.946,458.674z"/>
<g style="opacity:0.3;">
	<path style="fill:#FFFFFF;" d="M465.103,493.906c-0.375-0.374-0.624-0.804-0.968-1.194L335.131,363.715l-5.655,5.655
		l129.005,128.996c0.344,0.391,0.594,0.82,0.969,1.195c10.997,11.005,28.836,11.005,39.833,0.008
		c0.969-0.969,1.741-2.046,2.53-3.116C490.792,504.717,475.139,503.943,465.103,493.906z"/>
</g>
<g style="opacity:0.2;">
	<path d="M493.573,465.445c-0.375-0.375-0.805-0.633-1.203-0.976L363.381,335.465l5.655-5.654l128.996,129.004
		c0.391,0.344,0.82,0.594,1.195,0.977c11.005,10.997,11.005,28.828,0.008,39.825c-0.969,0.969-2.047,1.749-3.124,2.538
		C504.382,491.126,503.609,475.474,493.573,465.445z"/>
</g>
<path style="fill:#FFFFFF;" d="M295.055,323.625l34.428,34.436l5.624-5.631l-33.968-33.976
	C299.14,320.211,297.134,321.961,295.055,323.625z"/>
<g style="opacity:0.2;">
	<path d="M323.313,295.366l34.437,34.421l-5.632,5.631l-33.975-33.967C319.908,299.451,321.65,297.435,323.313,295.366z"/>
</g>
<g style="opacity:0.2;">
	<rect x="326.447" y="342.731" transform="matrix(-0.707 0.7072 -0.7072 -0.707 836.5797 346.8675)" width="39.98" height="7.997"/>
</g>
<g>
	<path style="fill:#656D78;" d="M155.749,249.879c1.906-13.146,0.406-35.366-4.061-52.408
		c-9.623-36.732-31.585-62.632-49.049-57.844c-17.464,4.772-23.822,38.427-14.199,75.175c4.467,17.042,14.035,37.061,22.135,47.464
		L155.749,249.879z"/>
	<path style="fill:#656D78;" d="M117.119,287.236c0,0,8.685,33.178,31.28,27.008c22.58-6.201,13.887-39.38,13.887-39.38
		L117.119,287.236z"/>
</g>
<g style="opacity:0.2;">
	<path d="M151.688,197.47c-9.576-36.561-31.375-62.366-48.799-57.883c15.628,3.483,32.647,26.751,40.801,57.883
		c4.468,17.042,6.78,41.231,4.874,54.376l7.186-1.968C157.656,236.733,156.156,214.513,151.688,197.47z"/>
</g>
<g style="opacity:0.2;">
	<path d="M162.287,274.864l-7.545,2.069c1.445,7.264,4.881,32.031-14.34,37.311c-0.484,0.133-0.921,0.148-1.39,0.242
		c2.827,0.641,5.928,0.703,9.388-0.242C170.98,308.043,162.287,274.864,162.287,274.864z"/>
</g>
<g style="opacity:0.3;">
	<path style="fill:#FFFFFF;" d="M96.437,214.802c-9.623-36.748-3.265-70.402,14.2-75.175c0.086-0.023,0.164-0.016,0.25-0.039
		c-2.812-0.625-5.585-0.688-8.248,0.039c-17.464,4.772-23.822,38.427-14.199,75.175c4.467,17.042,14.035,37.061,22.135,47.464
		l6.686-1.835C109.457,249.652,100.671,230.938,96.437,214.802z"/>
</g>
<g style="opacity:0.3;">
	<path style="fill:#FFFFFF;" d="M123.946,285.369l-6.826,1.867c0,0,8.357,31.679,29.891,27.25
		C131.381,310.94,123.946,285.369,123.946,285.369z"/>
</g>
<g>
	<path style="fill:#656D78;" d="M249.286,176.672c8.099-9.919,17.667-29.023,22.119-45.293c9.639-35.061,3.281-67.192-14.184-71.754
		c-17.463-4.577-39.426,20.151-49.048,55.22c-4.468,16.261-5.967,37.474-4.062,50.018L249.286,176.672z"/>
	<path style="fill:#656D78;" d="M197.575,188.715c0,0-8.693,31.679,13.887,37.583c22.596,5.905,31.281-25.79,31.281-25.79
		L197.575,188.715z"/>
</g>
<g style="opacity:0.2;">
	<path d="M257.221,59.625c-2.663-0.695-5.435-0.641-8.254-0.039c0.086,0.016,0.171,0.016,0.257,0.039
		c17.464,4.562,23.822,36.693,14.184,71.754c-4.218,15.41-13.012,33.265-20.807,43.543l6.685,1.75
		c8.099-9.919,17.667-29.023,22.119-45.293C281.044,96.318,274.686,64.186,257.221,59.625z"/>
</g>
<g style="opacity:0.2;">
	<path d="M235.54,198.627c0,0-7.061,24.517-22.681,27.906c21.534,4.226,29.883-26.024,29.883-26.024L235.54,198.627z"/>
</g>
<g style="opacity:0.3;">
	<path style="fill:#FFFFFF;" d="M211.446,166.776c-1.906-12.543,0.258-35.67,4.726-51.931c8.154-29.719,25.165-51.932,40.792-55.259
		c-17.417-4.28-39.215,20.362-48.791,55.259c-4.468,16.261-5.967,37.474-4.062,50.018L211.446,166.776z"/>
</g>
<g style="opacity:0.3;">
	<path style="fill:#FFFFFF;" d="M219.459,226.299c-19.229-5.03-15.785-28.68-14.34-35.615l-7.545-1.968
		c0,0-8.693,31.679,13.887,37.583c3.468,0.906,6.568,0.852,9.396,0.234C220.388,226.439,219.944,226.424,219.459,226.299z"/>
</g>
<g>
	<path style="fill:#3A3847;" d="M179.915,359.92c-48.065,0-93.257-18.723-127.247-52.713c-70.161-70.161-70.161-184.333,0-254.494
		C86.659,18.721,131.85,0,179.915,0s93.255,18.722,127.247,52.713c33.998,33.991,52.72,79.182,52.72,127.247
		c0.008,48.065-18.714,93.256-52.704,127.247C273.179,341.197,227.988,359.92,179.915,359.92z M179.915,7.998
		c-45.934,0-89.117,17.894-121.593,50.369c-67.044,67.045-67.044,176.141,0,243.186c32.476,32.475,75.659,50.369,121.593,50.369
		c45.933,0,89.124-17.895,121.607-50.369c32.476-32.484,50.369-75.66,50.361-121.593c0-45.933-17.894-89.117-50.377-121.593
		C269.031,25.891,225.848,7.998,179.915,7.998z"/>
	<path style="fill:#3A3847;" d="M179.884,343.908c-43.793,0-84.97-17.051-115.938-48.011c-63.928-63.92-63.928-167.939,0-231.859
		c30.968-30.969,72.145-48.026,115.946-48.026c43.792,0,84.96,17.05,115.929,48.011c63.912,63.928,63.912,167.939,0.016,231.875
		C264.86,326.857,223.684,343.908,179.884,343.908z M179.892,24.01c-41.661,0-80.83,16.222-110.291,45.683
		c-60.804,60.804-60.804,159.746,0,220.55c29.453,29.445,68.622,45.668,110.283,45.668c41.66,0,80.837-16.223,110.297-45.668
		c60.781-60.812,60.773-159.761-0.016-220.565C260.714,40.231,221.544,24.01,179.892,24.01z"/>
	<path style="fill:#3A3847;" d="M335.138,367.44c-1.023,0-2.046-0.39-2.827-1.171l-36.443-36.443c-1.562-1.562-1.562-4.093,0-5.655
		s4.093-1.562,5.654,0l36.443,36.443c1.562,1.562,1.562,4.093,0,5.655C337.184,367.051,336.162,367.44,335.138,367.44z"/>
	<path style="fill:#3A3847;" d="M363.412,339.182c-1.022,0-2.046-0.391-2.827-1.171l-36.443-36.459
		c-1.562-1.562-1.562-4.094,0-5.655s4.093-1.562,5.654,0l36.443,36.459c1.562,1.562,1.562,4.093,0,5.655
		C365.459,338.792,364.435,339.182,363.412,339.182z"/>
	<path style="fill:#3A3847;" d="M329.483,373.111c-1.022,0-2.046-0.391-2.827-1.172c-1.562-1.562-1.562-4.093,0-5.654l39.583-39.584
		c1.562-1.562,4.093-1.562,5.655,0s1.562,4.094,0,5.655l-39.583,39.583C331.53,372.72,330.507,373.111,329.483,373.111z"/>
	<path style="fill:#3A3847;" d="M499.032,463.501c-1.023,0-2.047-0.391-2.827-1.172L366.239,332.356
		c-1.562-1.562-1.562-4.093,0-5.655s4.093-1.562,5.655,0l129.965,129.974c1.562,1.562,1.562,4.093,0,5.654
		C501.078,463.11,500.055,463.501,499.032,463.501z"/>
	<path style="fill:#3A3847;" d="M459.98,503.599c-1.023,0-2.047-0.391-2.827-1.172L326.656,371.939
		c-1.562-1.562-1.562-4.093,0-5.654c1.562-1.562,4.093-1.562,5.655,0l130.496,130.488c1.562,1.562,1.562,4.093,0,5.654
		C462.026,503.209,461.003,503.599,459.98,503.599z"/>
	<path style="fill:#3A3847;" d="M479.787,511.816c-8.552,0-16.589-3.336-22.634-9.389c-1.562-1.562-1.562-4.093,0-5.654
		c1.562-1.562,4.092-1.562,5.654,0c4.538,4.545,10.567,7.045,16.979,7.045c0.008,0,0.008,0,0.016,0
		c6.405-0.008,12.411-2.5,16.925-7.029c4.546-4.538,7.045-10.56,7.045-16.965c0-6.412-2.499-12.441-7.037-16.979
		c-1.562-1.562-1.562-4.093,0-5.654c1.562-1.562,4.094-1.562,5.655,0c6.053,6.053,9.38,14.09,9.38,22.634
		c0,8.545-3.327,16.574-9.38,22.619c-6.021,6.037-14.043,9.365-22.588,9.373C479.795,511.816,479.795,511.816,479.787,511.816z"/>
	<path style="fill:#3A3847;" d="M110.528,267.179c-1.211,0-2.382-0.555-3.156-1.539c-8.763-11.254-18.37-31.819-22.845-48.908
		c-10.333-39.458-2.858-74.621,17.011-80.049c1.719-0.469,3.515-0.711,5.327-0.711c18.87,0,39.325,25.821,48.643,61.397
		c4.468,17.05,6.218,39.755,4.155,53.993c-0.234,1.578-1.367,2.867-2.905,3.288l-45.175,12.388
		C111.238,267.132,110.879,267.179,110.528,267.179z M106.865,143.97c-1.102,0-2.18,0.141-3.218,0.43
		c-15.074,4.116-20.284,36.311-11.387,70.301c3.905,14.879,12.208,33.147,19.846,43.902l39.958-10.958
		c1.359-13.246-0.39-33.366-4.288-48.245C138.684,164.706,119.837,143.97,106.865,143.97z"/>
	<path style="fill:#3A3847;" d="M142.886,319.922L142.886,319.922c-21.385,0-29.352-29.508-29.68-30.757
		c-0.555-2.124,0.695-4.296,2.812-4.874l45.168-12.371c1.023-0.281,2.124-0.141,3.054,0.398c0.922,0.53,1.601,1.413,1.867,2.444
		c3.358,12.801,4.178,38.521-16.691,44.254C147.205,319.617,145.01,319.922,142.886,319.922z M122.18,290.898
		c2.554,6.936,9.177,21.025,20.706,21.025c1.414,0,2.897-0.21,4.413-0.624c14.317-3.929,13.145-22.314,11.848-30.531L122.18,290.898
		z"/>
	<path style="fill:#3A3847;" d="M249.24,181.584c-0.335,0-0.679-0.039-1.007-0.133l-45.176-11.809
		c-1.546-0.398-2.702-1.688-2.944-3.265c-2.069-13.637-0.32-35.366,4.155-51.681c9.333-34.015,29.789-58.703,48.628-58.703
		c1.804,0,3.584,0.227,5.294,0.68c5.92,1.546,10.997,5.74,14.684,12.129c8.396,14.535,9.287,39.271,2.344,64.553
		c-4.476,16.331-14.099,35.998-22.876,46.761C251.568,181.061,250.419,181.584,249.24,181.584z M207.689,162.59l40.013,10.458
		c7.631-10.24,15.925-27.641,19.799-41.81c6.311-22.947,5.693-45.878-1.555-58.445c-2.632-4.553-5.92-7.38-9.778-8.388
		c-15.012-3.905-35.444,20.557-44.184,52.407C208.103,130.926,206.361,149.983,207.689,162.59z"/>
	<path style="fill:#3A3847;" d="M216.889,231.946L216.889,231.946c-2.109,0-4.295-0.289-6.483-0.867
		c-6.451-1.688-11.325-5.312-14.488-10.786c-7.342-12.716-2.46-30.953-2.249-31.718c0.586-2.125,2.772-3.413,4.866-2.812
		l45.167,11.794c1.039,0.266,1.921,0.938,2.453,1.867c0.539,0.921,0.679,2.023,0.398,3.054
		C246.225,203.679,238.227,231.946,216.889,231.946z M200.589,194.565c-0.867,5.303-1.671,14.941,2.272,21.744
		c2.078,3.593,5.21,5.896,9.568,7.037c1.53,0.398,3.03,0.602,4.459,0.602c11.45,0,18.019-13.067,20.627-19.745L200.589,194.565z"/>
</g>
<g>
</g>
<g>
</g>
<g>
</g>
<g>
</g>
<g>
</g>
<g>
</g>
<g>
</g>
<g>
</g>
<g>
</g>
<g>
</g>
<g>
</g>
<g>
</g>
<g>
</g>
<g>
</g>
<g>
</g>
</svg>
