<svg height="512pt" viewBox="0 0 512 512.00025" width="512pt" xmlns="http://www.w3.org/2000/svg"><path d="m211 346v121h-120v-121c0-8.402344 6.597656-15 15-15h90c8.402344 0 15 6.597656 15 15zm0 0" fill="#b1efaf"/><path d="m211 346v121h-60v-136h45c8.402344 0 15 6.597656 15 15zm0 0" fill="#70da40"/><path d="m361 256v211h-120v-211c0-8.402344 6.597656-15 15-15h90c8.402344 0 15 6.597656 15 15zm0 0" fill="#ffe470"/><path d="m361 256v211h-60v-226h45c8.402344 0 15 6.597656 15 15zm0 0" fill="#fdbf00"/><path d="m512 166v286l-30 15h-90v-301c0-8.402344 6.597656-15 15-15h90c8.402344 0 15 6.597656 15 15zm0 0" fill="#a8ebfa"/><path d="m512 166v286l-30 15h-30v-316h45c8.402344 0 15 6.597656 15 15zm0 0" fill="#76e2f8"/><path d="m497 0h-60c-8.289062 0-15 6.710938-15 15 0 8.292969 6.710938 15 15 15h26.882812c-125.40625 133.183594-332.648437 178.660156-358.074218 180-8.1875.101562-14.808594 6.78125-14.808594 15 0 8.292969 6.710938 15 15 15 20.886719 0 239.457031-43.664062 376-185.308594v20.308594c0 8.292969 6.710938 15 15 15 8.292969 0 15-6.707031 15-15v-60c0-8.09375-7.464844-15-15-15zm0 0" fill="#ff7816"/><path d="m181 120c-3.835938 0-7.675781-1.464844-10.605469-4.394531-5.859375-5.859375-5.859375-15.351563 0-21.210938l90-90c5.859375-5.859375 15.351563-5.859375 21.210938 0s5.859375 15.351563 0 21.210938l-90 90c-2.929688 2.929687-6.765625 4.394531-10.605469 4.394531zm0 0" fill="#ff7816"/><path d="m196 15c0 8.285156-6.714844 15-15 15s-15-6.714844-15-15 6.714844-15 15-15 15 6.714844 15 15zm0 0" fill="#ff7816"/><path d="m286 105c0 8.285156-6.714844 15-15 15s-15-6.714844-15-15 6.714844-15 15-15 15 6.714844 15 15zm0 0" fill="#ff7816"/><g fill="#293939"><path d="m407 512c-8.289062 0-15-6.707031-15-15v-30c0-8.289062 6.710938-15 15-15 8.292969 0 15 6.710938 15 15v30c0 8.292969-6.707031 15-15 15zm0 0"/><path d="m346 512c-8.289062 0-15-6.707031-15-15v-30c0-8.289062 6.710938-15 15-15 8.292969 0 15 6.710938 15 15v30c0 8.292969-6.707031 15-15 15zm0 0"/><path d="m286 512c-8.289062 0-15-6.707031-15-15v-30c0-8.289062 6.710938-15 15-15 8.292969 0 15 6.710938 15 15v30c0 8.292969-6.707031 15-15 15zm0 0"/><path d="m166 512c-8.289062 0-15-6.707031-15-15v-30c0-8.289062 6.710938-15 15-15 8.292969 0 15 6.710938 15 15v30c0 8.292969-6.707031 15-15 15zm0 0"/><path d="m106 512c-8.289062 0-15-6.707031-15-15v-30c0-8.289062 6.710938-15 15-15 8.292969 0 15 6.710938 15 15v30c0 8.292969-6.707031 15-15 15zm0 0"/><path d="m226 512c-8.289062 0-15-6.707031-15-15v-30c0-8.289062 6.710938-15 15-15 8.292969 0 15 6.710938 15 15v30c0 8.292969-6.707031 15-15 15zm0 0"/><path d="m467 512c-8.289062 0-15-6.707031-15-15v-30c0-8.289062 6.710938-15 15-15 8.292969 0 15 6.710938 15 15v30c0 8.292969-6.707031 15-15 15zm0 0"/><path d="m60 467c0 8.292969-6.707031 15-15 15h-30c-8.289062 0-15-6.707031-15-15 0-8.289062 6.710938-15 15-15h30c8.292969 0 15 6.710938 15 15zm0 0"/><path d="m45 421h-30c-8.289062 0-15-6.707031-15-15 0-8.289062 6.710938-15 15-15h30c8.292969 0 15 6.710938 15 15 0 8.292969-6.707031 15-15 15zm0 0"/><path d="m45 361h-30c-8.289062 0-15-6.707031-15-15 0-8.289062 6.710938-15 15-15h30c8.292969 0 15 6.710938 15 15 0 8.292969-6.707031 15-15 15zm0 0"/><path d="m45 301h-30c-8.289062 0-15-6.707031-15-15 0-8.289062 6.710938-15 15-15h30c8.292969 0 15 6.710938 15 15 0 8.292969-6.707031 15-15 15zm0 0"/><path d="m45 241h-30c-8.289062 0-15-6.707031-15-15 0-8.289062 6.710938-15 15-15h30c8.292969 0 15 6.710938 15 15 0 8.292969-6.707031 15-15 15zm0 0"/><path d="m60 166c0 8.292969-6.707031 15-15 15h-30c-8.289062 0-15-6.707031-15-15 0-8.289062 6.710938-15 15-15h30c8.292969 0 15 6.710938 15 15zm0 0"/><path d="m45 121h-30c-8.289062 0-15-6.707031-15-15 0-8.289062 6.710938-15 15-15h30c8.292969 0 15 6.710938 15 15 0 8.292969-6.707031 15-15 15zm0 0"/><path d="m45 61h-30c-8.289062 0-15-6.707031-15-15 0-8.289062 6.710938-15 15-15h30c8.292969 0 15 6.710938 15 15 0 8.292969-6.707031 15-15 15zm0 0"/><path d="m30 482v15c0 8.292969 6.710938 15 15 15 8.292969 0 15-6.707031 15-15v-30c0-2.742188-.933594-5.171875-2.214844-7.382812zm0 0"/></g><path d="m512 467c0 8.292969-6.707031 15-15 15h-467v-466c0-8.289062 6.710938-15 15-15 8.292969 0 15 6.710938 15 15v436h452zm0 0" fill="#4a696f"/></svg>