<?xml version="1.0" encoding="iso-8859-1"?>
<!-- Generator: Adobe Illustrator 19.0.0, SVG Export Plug-In . SVG Version: 6.00 Build 0)  -->
<svg version="1.1" id="Capa_1" xmlns="http://www.w3.org/2000/svg" xmlns:xlink="http://www.w3.org/1999/xlink" x="0px" y="0px"
	 viewBox="0 0 511.999 511.999" style="enable-background:new 0 0 511.999 511.999;" xml:space="preserve">
<path style="fill:#F9D366;" d="M351.707,48.592l4.951-1.004c6.534-1.324,6.534-10.663,0-11.987l-4.951-1.004
	c-12.472-2.529-22.218-12.275-24.747-24.747L325.957,4.9c-1.324-6.534-10.662-6.534-11.987,0l-1.004,4.951
	c-2.529,12.472-12.275,22.218-24.747,24.747l-4.951,1.004c-6.534,1.324-6.534,10.663,0,11.987l4.951,1.004
	c12.472,2.529,22.218,12.275,24.747,24.747l1.004,4.951c1.324,6.534,10.663,6.534,11.987,0l1.004-4.951
	C329.489,60.867,339.236,51.121,351.707,48.592z"/>
<g>
	<path style="fill:#CF8BFC;" d="M431.568,71.685c-4.327,0-7.833-3.507-7.833-7.833V43.094c0-4.326,3.506-7.833,7.833-7.833
		c4.327,0,7.833,3.507,7.833,7.833v20.758C439.401,68.177,435.894,71.685,431.568,71.685z"/>
	<path style="fill:#CF8BFC;" d="M431.568,127.571c-4.327,0-7.833-3.507-7.833-7.833V98.98c0-4.326,3.506-7.833,7.833-7.833
		c4.327,0,7.833,3.507,7.833,7.833v20.758C439.401,124.064,435.894,127.571,431.568,127.571z"/>
	<path style="fill:#CF8BFC;" d="M469.889,89.249h-20.758c-4.327,0-7.833-3.507-7.833-7.833c0-4.326,3.506-7.833,7.833-7.833h20.758
		c4.327,0,7.833,3.507,7.833,7.833C477.722,85.742,474.216,89.249,469.889,89.249z"/>
</g>
<path style="fill:#9F74E2;" d="M414.002,89.249h-20.758c-4.327,0-7.833-3.507-7.833-7.833c0-4.326,3.506-7.833,7.833-7.833h20.758
	c4.327,0,7.833,3.507,7.833,7.833C421.836,85.742,418.329,89.249,414.002,89.249z"/>
<g>
	<path style="fill:#F9D366;" d="M72.078,114.029c-4.327,0-7.833-3.507-7.833-7.833V85.438c0-4.326,3.506-7.833,7.833-7.833
		c4.327,0,7.833,3.507,7.833,7.833v20.758C79.911,110.522,76.405,114.029,72.078,114.029z"/>
	<path style="fill:#F9D366;" d="M72.078,169.915c-4.327,0-7.833-3.507-7.833-7.833v-20.758c0-4.326,3.506-7.833,7.833-7.833
		c4.327,0,7.833,3.507,7.833,7.833v20.758C79.911,166.407,76.405,169.915,72.078,169.915z"/>
	<path style="fill:#F9D366;" d="M110.4,131.593H89.643c-4.327,0-7.833-3.507-7.833-7.833c0-4.326,3.506-7.833,7.833-7.833H110.4
		c4.327,0,7.833,3.507,7.833,7.833C118.233,128.086,114.726,131.593,110.4,131.593z"/>
	<path style="fill:#F9D366;" d="M54.515,131.593H33.757c-4.327,0-7.833-3.507-7.833-7.833c0-4.326,3.506-7.833,7.833-7.833h20.758
		c4.327,0,7.833,3.507,7.833,7.833C62.348,128.086,58.842,131.593,54.515,131.593z"/>
</g>
<path style="fill:#4E4F75;" d="M396.713,281.995v187.408c0,23.529-61.084,42.596-136.434,42.596c-21.64,0-42.108-1.576-60.283-4.377
	c-45.122-6.939-76.153-21.445-76.153-38.219V283.487l76.153-0.415L396.713,281.995z"/>
<g>
	<path style="fill:#32314C;" d="M199.997,283.073v224.549c-45.122-6.939-76.153-21.445-76.153-38.219V267.82L199.997,283.073z"/>
	<path style="fill:#32314C;" d="M396.713,281.995v28.569c-37.896,8.985-85.165,14.321-136.434,14.321s-98.538-5.336-136.434-14.321
		v-27.077l76.153-0.415L396.713,281.995z"/>
</g>
<ellipse style="fill:#4E4F75;" cx="260.28" cy="225.357" rx="225.796" ry="70.499"/>
<path style="fill:#32314C;" d="M260.276,244.246c-44.892,0-88.923-4.545-123.983-12.8c-0.085-0.02-0.169-0.04-0.254-0.06
	c-6.347-1.499-6.347-10.56,0-12.06c0.085-0.02,0.169-0.04,0.254-0.06c35.061-8.254,79.091-12.8,123.983-12.8
	s88.922,4.545,123.983,12.8c0.085,0.02,0.169,0.04,0.254,0.06c6.347,1.499,6.347,10.56,0,12.06c-0.085,0.02-0.169,0.04-0.254,0.06
	C349.198,239.701,305.167,244.246,260.276,244.246z"/>
<path style="fill:#ED4596;" d="M168.67,20.686l8.628,17.483c1.052,2.131,3.084,3.607,5.435,3.949l19.294,2.803
	c5.922,0.861,8.285,8.137,4.001,12.314l-13.961,13.609c-1.701,1.659-2.478,4.048-2.076,6.39l3.296,19.215
	c1.011,5.898-5.178,10.395-10.475,7.611l-17.256-9.072c-2.103-1.106-4.615-1.106-6.719,0l-17.256,9.072
	c-5.296,2.784-11.487-1.713-10.475-7.611l3.296-19.215c0.402-2.342-0.375-4.731-2.076-6.39l-13.963-13.609
	c-4.285-4.177-1.921-11.453,4.001-12.314l19.294-2.803c2.351-0.342,4.385-1.818,5.435-3.949l8.628-17.483
	C158.371,15.32,166.023,15.32,168.67,20.686z"/>
<path style="fill:#F9D366;" d="M215.642,228.69c-4.325,0-7.831-3.506-7.833-7.831c0-0.451-0.145-45.578-11.014-85.627
	c-1.133-4.176,1.333-8.479,5.508-9.612c4.171-1.132,8.478,1.333,9.611,5.508c11.428,42.115,11.56,87.803,11.56,89.728
	c0,4.326-3.505,7.831-7.831,7.832C215.643,228.69,215.642,228.69,215.642,228.69z"/>
<g>
	<path style="fill:#CF8BFC;" d="M256.42,187.912c-4.327,0-7.833-3.507-7.833-7.833V77.095c0-4.326,3.506-7.833,7.833-7.833
		c4.327,0,7.833,3.507,7.833,7.833v102.984C264.254,184.405,260.747,187.912,256.42,187.912z"/>
	<path style="fill:#CF8BFC;" d="M320.699,228.689c-0.001,0-0.002,0-0.003,0c-4.325-0.001-7.83-3.507-7.83-7.832
		c0-3.027,0.346-74.654,30.31-120.409c2.371-3.62,7.225-4.631,10.845-2.261c3.619,2.37,4.632,7.225,2.261,10.844
		c-27.38,41.807-27.749,111.133-27.75,111.827C328.529,225.185,325.023,228.689,320.699,228.689z"/>
</g>
<path style="fill:#ED4596;" d="M291.164,182.056c-0.256,0-0.514-0.013-0.773-0.038c-4.306-0.422-7.454-4.254-7.031-8.56
	l5.222-53.264c0.422-4.306,4.271-7.453,8.559-7.031c4.306,0.422,7.454,4.254,7.031,8.56l-5.222,53.264
	C298.554,179.033,295.146,182.056,291.164,182.056z"/>
<g>
</g>
<g>
</g>
<g>
</g>
<g>
</g>
<g>
</g>
<g>
</g>
<g>
</g>
<g>
</g>
<g>
</g>
<g>
</g>
<g>
</g>
<g>
</g>
<g>
</g>
<g>
</g>
<g>
</g>
</svg>
