<svg id="Capa_1" enable-background="new 0 0 512 512" height="512" viewBox="0 0 512 512" width="512" xmlns="http://www.w3.org/2000/svg"><g><g><g><path d="m205.067 256.776h-69.067c-41.353 0-75-33.647-75-75v-.029c-18.208-13.696-30-35.479-30-59.971v-.029c-18.208-13.696-31-35.478-31-59.971v-15h152.494c44.121 0 81.504 31.362 88.887 74.561l.835 4.849-11.719 23.408-56.235 8.159 40.84 39.771z" fill="#f3f5f9"/></g><g><path d="m376 256.776h-69.067l-10.034-59.253 40.84-39.771-56.235-8.159-11.719-23.408.835-4.849c7.383-43.198 44.766-74.561 88.887-74.561h152.493v15c0 24.492-12.792 46.274-31 59.971v.029c0 24.492-11.792 46.274-30 59.971v.029c0 41.354-33.647 75.001-75 75.001z" fill="#e1e6f0"/></g><g><path d="m241 301.776h30v180h-30z" fill="#ffbe40"/></g><g><path d="m301 331.776h30v90h-30z" fill="#ff9f40"/></g><g><path d="m181 331.776h30v90h-30z" fill="#ffbe40"/></g></g><path d="m256 301.776h15v180h-15z" fill="#ff9f40"/><g><path d="m346.527 308.896-90.527-47.754-90.527 47.754 17.432-100.854-73.154-71.235 100.942-14.663 45.307-91.92 45.308 91.919 100.942 14.663-73.154 71.235z" fill="#ffdf40"/></g><path d="m346.527 308.896-17.431-100.855 73.154-71.235-100.942-14.663-45.308-91.919v230.918z" fill="#ffbe40"/></g></svg>