<?xml version="1.0" encoding="UTF-8" standalone="no"?>
<svg
   xmlns:dc="http://purl.org/dc/elements/1.1/"
   xmlns:cc="http://creativecommons.org/ns#"
   xmlns:rdf="http://www.w3.org/1999/02/22-rdf-syntax-ns#"
   xmlns:svg="http://www.w3.org/2000/svg"
   xmlns="http://www.w3.org/2000/svg"
   xmlns:sodipodi="http://sodipodi.sourceforge.net/DTD/sodipodi-0.dtd"
   xmlns:inkscape="http://www.inkscape.org/namespaces/inkscape"
   inkscape:version="1.0 (4035a4fb49, 2020-05-01)"
   sodipodi:docname="undraw_mobile_ux_o0e1.svg"
   version="1.1"
   viewBox="0 0 777.59215 770.49244"
   height="770.49244"
   width="777.59215"
   data-name="Layer 1"
   id="aaab7897-aa30-48a7-8179-712109baaf81">
  <metadata
     id="metadata985">
    <rdf:RDF>
      <cc:Work
         rdf:about="">
        <dc:format>image/svg+xml</dc:format>
        <dc:type
           rdf:resource="http://purl.org/dc/dcmitype/StillImage" />
      </cc:Work>
    </rdf:RDF>
  </metadata>
  <defs
     id="defs983" />
  <sodipodi:namedview
     inkscape:current-layer="aaab7897-aa30-48a7-8179-712109baaf81"
     inkscape:window-maximized="1"
     inkscape:window-y="-8"
     inkscape:window-x="-8"
     inkscape:cy="385.24622"
     inkscape:cx="388.79608"
     inkscape:zoom="0.45312347"
     showgrid="false"
     id="namedview981"
     inkscape:window-height="538"
     inkscape:window-width="1024"
     inkscape:pageshadow="2"
     inkscape:pageopacity="0"
     guidetolerance="10"
     gridtolerance="10"
     objecttolerance="10"
     borderopacity="1"
     bordercolor="#666666"
     pagecolor="#ffffff" />
  <path
     style="fill:#d7e3f4"
     id="path932"
     fill="#3f3d56"
     transform="translate(-211.20392 -64.75378)"
     d="M954.491,327.17433l-3.79169-1.27018,34.796-103.87212A63.40183,63.40183,0,0,0,945.516,141.77465l-.00029-.00009-220.067-73.72a63.40184,63.40184,0,0,0-80.25741,39.97919l-.00006.00019L454.29764,677.88444a63.40187,63.40187,0,0,0,39.97929,80.25738l.00017,0,220.067,73.72a63.40186,63.40186,0,0,0,80.25745-39.97913l.00008-.00023L925.93085,399.84208l3.79175,1.2702Z" />
  <path
     style="fill:#221c24"
     transform="translate(-211.20392 -64.75378)"
     id="path934"
     fill="#fff"
     d="M942.70214,158.22792l-28.726-9.62291a22.49485,22.49485,0,0,1-29.59238,22.77l-126.07367-42.2333a22.49481,22.49481,0,0,1-9.90469-36.00114l-26.8302-8.98783a47.34781,47.34781,0,0,0-59.9353,29.85608L471.02622,683.02339a47.34781,47.34781,0,0,0,29.85611,59.93532l.00012,0,221.12693,74.0751a47.34781,47.34781,0,0,0,59.93532-29.85612h0L972.55834,218.16317A47.34777,47.34777,0,0,0,942.70214,158.22792Z" />
  <path
     style="fill:#00ccff"
     id="path936"
     fill="#3f3d56"
     transform="translate(-211.20392 -64.75378)"
     d="M887.40194,349.12612,651.41645,270.07357a4.6142,4.6142,0,0,1-2.90616-5.834l19.60956-58.53792a4.6142,4.6142,0,0,1,5.834-2.90616L909.93937,281.848a4.61421,4.61421,0,0,1,2.90616,5.834L893.236,346.22A4.6142,4.6142,0,0,1,887.40194,349.12612ZM673.36831,204.54351a2.76829,2.76829,0,0,0-3.50042,1.74369l-19.60956,58.53792a2.7683,2.7683,0,0,0,1.7437,3.50042l235.98548,79.05255a2.7683,2.7683,0,0,0,3.50042-1.7437l19.60956-58.53792a2.76828,2.76828,0,0,0-1.7437-3.50041Z" />
  <path
     id="path938"
     fill="#3f3d56"
     transform="translate(-211.20392 -64.75378)"
     d="M809.81347,580.74109,573.828,501.68854a4.61421,4.61421,0,0,1-2.90616-5.834l36.2984-108.357a4.6142,4.6142,0,0,1,5.834-2.90616l235.98548,79.05255a4.6142,4.6142,0,0,1,2.90617,5.834l-36.29841,108.357A4.6142,4.6142,0,0,1,809.81347,580.74109ZM612.46868,386.3394a2.7683,2.7683,0,0,0-3.50042,1.7437l-36.2984,108.357a2.76829,2.76829,0,0,0,1.74369,3.50042L810.399,578.99305a2.76829,2.76829,0,0,0,3.50042-1.7437l36.2984-108.357a2.7683,2.7683,0,0,0-1.7437-3.50042Z" />
  <path
     id="path940"
     fill="#e6e6e6"
     transform="translate(-211.20392 -64.75378)"
     d="M855.20409,439.4385,750.32141,404.304a4.6142,4.6142,0,0,1-2.90616-5.834L767.02481,339.932a4.6142,4.6142,0,0,1,5.834-2.90616l104.88267,35.13454a4.6142,4.6142,0,0,1,2.90616,5.834l-19.60956,58.53792A4.6142,4.6142,0,0,1,855.20409,439.4385ZM772.27326,338.77389a2.76827,2.76827,0,0,0-3.50041,1.74369L749.16329,399.0555a2.76828,2.76828,0,0,0,1.74369,3.50041l104.88268,35.13455a2.76829,2.76829,0,0,0,3.50042-1.7437l19.60956-58.53791a2.7683,2.7683,0,0,0-1.7437-3.50042Z" />
  <path
     style="fill:#ff5555"
     id="path942"
     fill="#e6e6e6"
     transform="translate(-211.20392 -64.75378)"
     d="M631.27921,678.41412,526.39654,643.27957a4.61419,4.61419,0,0,1-2.90616-5.834l36.59119-109.231a4.6142,4.6142,0,0,1,5.834-2.90616l104.88268,35.13455a4.61421,4.61421,0,0,1,2.90616,5.834L637.11324,675.508A4.61421,4.61421,0,0,1,631.27921,678.41412ZM565.33,527.05642a2.76829,2.76829,0,0,0-3.50042,1.7437l-36.59119,109.231a2.7683,2.7683,0,0,0,1.7437,3.50042l104.88268,35.13454a2.76828,2.76828,0,0,0,3.50041-1.74369l36.59119-109.231a2.76828,2.76828,0,0,0-1.7437-3.50041Z" />
  <path
     style="fill:#55ddff"
     id="path944"
     fill="#e6e6e6"
     transform="translate(-211.20392 -64.75378)"
     d="M760.634,721.74655,655.75131,686.612a4.6142,4.6142,0,0,1-2.90616-5.834l36.59119-109.231a4.61421,4.61421,0,0,1,5.834-2.90616L800.153,603.77536a4.61419,4.61419,0,0,1,2.90616,5.834L766.468,718.84039A4.6142,4.6142,0,0,1,760.634,721.74655Zm-65.9492-151.3577a2.76828,2.76828,0,0,0-3.50041,1.7437l-36.59119,109.231a2.76829,2.76829,0,0,0,1.74369,3.50042l104.88268,35.13454a2.76828,2.76828,0,0,0,3.50041-1.74369l36.59119-109.231a2.76828,2.76828,0,0,0-1.74369-3.50041Z" />
  <circle
     style="fill:#55ddff"
     id="circle946"
     fill="#f50057"
     r="18.77372"
     cy="369.92026"
     cx="423.91105" />
  <path
     id="path948"
     fill="#e6e6e6"
     transform="translate(-211.20392 -64.75378)"
     d="M680.20337,436.57877a3.129,3.129,0,1,0-1.98776,5.93382L818.08415,489.367a3.129,3.129,0,1,0,1.98777-5.93381Z" />
  <path
     id="path950"
     fill="#e6e6e6"
     transform="translate(-211.20392 -64.75378)"
     d="M674.24008,454.38022a3.129,3.129,0,1,0-1.98776,5.93382l60.18586,20.1616a3.129,3.129,0,0,0,1.98776-5.93382Z" />
  <path
     id="path952"
     fill="#e6e6e6"
     transform="translate(-211.20392 -64.75378)"
     d="M609.93945,464.49321c-2.25687-.756-4.53934-.04011-5.08731,1.59566s.84268,3.58213,3.09954,4.33816l192.97557,64.6447c2.25686.756,4.53933.04011,5.0873-1.59566s-.84268-3.58214-3.09954-4.33816Z" />
  <path
     id="path954"
     fill="#e6e6e6"
     transform="translate(-211.20392 -64.75378)"
     d="M603.97616,482.29466c-2.25687-.756-4.53934-.04011-5.08731,1.59566s.84268,3.58214,3.09954,4.33816L794.964,552.87318c2.25687.756,4.53934.04011,5.08731-1.59566s-.84268-3.58214-3.09954-4.33816Z" />
  <circle
     style="fill:#00ccff"
     id="circle956"
     fill="#f50057"
     r="18.77372"
     cy="181.71779"
     cx="488.90101" />
  <path
     id="path958"
     fill="#e6e6e6"
     transform="translate(-211.20392 -64.75378)"
     d="M745.19333,248.3763a3.12895,3.12895,0,1,0-1.98776,5.93381l139.86855,46.85443a3.129,3.129,0,0,0,1.98776-5.93382Z" />
  <path
     id="path960"
     fill="#e6e6e6"
     transform="translate(-211.20392 -64.75378)"
     d="M739.23,266.17775a3.12895,3.12895,0,1,0-1.98776,5.93381l60.18586,20.16161a3.129,3.129,0,0,0,1.98776-5.93382Z" />
  <path
     id="path962"
     fill="#e6e6e6"
     transform="translate(-211.20392 -64.75378)"
     d="M725.75292,396.08564l-98.389-32.95923,36.589-32.34858a4.9864,4.9864,0,0,1,8.18966,2.74344l4.1521,20.44557,26.57678-23.49626a6.24306,6.24306,0,0,1,10.2535,3.43481ZM630.977,362.39255l92.334,30.93088-11.993-59.05125a4.399,4.399,0,0,0-7.22517-2.42035l-28.9693,25.61109-4.78791-23.57486a3.1423,3.1423,0,0,0-5.16132-1.729Z" />
  <path
     id="path964"
     fill="#e6e6e6"
     transform="translate(-211.20392 -64.75378)"
     d="M851.61162,438.24693l-98.389-32.95924,36.589-32.34858a4.98641,4.98641,0,0,1,8.18966,2.74345l4.1521,20.44557,26.57678-23.49626a6.24306,6.24306,0,0,1,10.2535,3.43481Zm-94.77594-33.6931,92.334,30.93088-11.993-59.05124a4.399,4.399,0,0,0-7.22517-2.42035L800.98221,399.6242l-4.78791-23.57485a3.14229,3.14229,0,0,0-5.16132-1.729Z" />
  <path
     id="path966"
     fill="#e6e6e6"
     transform="translate(-211.20392 -64.75378)"
     d="M725.84931,396.10607,620.96664,360.97152a4.61419,4.61419,0,0,1-2.90616-5.834L637.67,296.59958a4.61419,4.61419,0,0,1,5.834-2.90616L748.38674,328.828a4.6142,4.6142,0,0,1,2.90616,5.834l-19.60956,58.53792A4.61421,4.61421,0,0,1,725.84931,396.10607ZM642.91849,295.44146a2.76827,2.76827,0,0,0-3.50041,1.74369l-19.60956,58.53792a2.76828,2.76828,0,0,0,1.74369,3.50041L726.43489,394.358a2.76828,2.76828,0,0,0,3.50041-1.7437l19.60956-58.53791a2.76829,2.76829,0,0,0-1.74369-3.50042Z" />
  <path
     id="path968"
     fill="#e6e6e6"
     transform="translate(-211.20392 -64.75378)"
     d="M580.71823,555.32027a3.129,3.129,0,1,0-1.98776,5.93382l60.18586,20.1616a3.12895,3.12895,0,1,0,1.98776-5.93381Z" />
  <path
     style="fill:#dbe3e2"
     id="path970"
     fill="#e6e6e6"
     transform="translate(-211.20392 -64.75378)"
     d="M574.8625,572.80065a3.129,3.129,0,0,0-1.98777,5.93382l60.18586,20.1616a3.129,3.129,0,0,0,1.98777-5.93382Z" />
  <path
     style="fill:#dbe2e3"
     id="path972"
     fill="#e6e6e6"
     transform="translate(-211.20392 -64.75378)"
     d="M586.38386,638.3215a19.69532,19.69532,0,1,1,24.93135-12.4193A19.71763,19.71763,0,0,1,586.38386,638.3215Zm11.92648-35.60261a17.85181,17.85181,0,1,0,11.25683,22.59774A17.87259,17.87259,0,0,0,598.31034,602.71889Z" />
  <path
     id="path974"
     fill="#e6e6e6"
     transform="translate(-211.20392 -64.75378)"
     d="M745.83135,691.73466a3.129,3.129,0,1,0,1.98776-5.93382l-60.18586-20.1616a3.129,3.129,0,1,0-1.98776,5.93382Z" />
  <path
     id="path976"
     fill="#e6e6e6"
     transform="translate(-211.20392 -64.75378)"
     d="M751.68708,674.25428a3.12895,3.12895,0,1,0,1.98776-5.93381L693.489,648.15886a3.129,3.129,0,1,0-1.98776,5.93382Z" />
  <path
     style="fill:#dbe2e3"
     id="path978"
     fill="#e6e6e6"
     transform="translate(-211.20392 -64.75378)"
     d="M740.16572,608.73343a19.69532,19.69532,0,1,1-24.93135,12.4193A19.71763,19.71763,0,0,1,740.16572,608.73343ZM728.23924,644.336a17.85181,17.85181,0,1,0-11.25683-22.59774A17.87257,17.87257,0,0,0,728.23924,644.336Z" />
</svg>
